<svg xmlns="http://www.w3.org/2000/svg" viewBox="0 0 32 32">
  <defs>
    <linearGradient id="bg" x1="0%" y1="0%" x2="100%" y2="100%">
      <stop offset="0%" style="stop-color:#1a1a2e"/>
      <stop offset="100%" style="stop-color:#0f0f1a"/>
    </linearGradient>
    <linearGradient id="accent" x1="0%" y1="0%" x2="100%" y2="100%">
      <stop offset="0%" style="stop-color:#f97316"/>
      <stop offset="100%" style="stop-color:#ea580c"/>
    </linearGradient>
  </defs>
  <rect width="32" height="32" rx="6" fill="url(#bg)"/>
  <!-- Bitcoin ₿ symbol stylized -->
  <path d="M20.5 12.5c0-2.5-2-3.5-4.5-3.8V6h-2.6h-1.5V6h-2.7H8h1.5v10.6H8h2.56h2v-2.7H146h2v-2.8c3-.3 5-1.5 5-4.2 0-2-1-3.2-2.8-3.8 1.3-.5 2.3-1.5 2.3-2.7zM12 12.5h2.5c1.5 0 2.2.6 2.2 1.5s-.7 1.5-2.2 1.5H12v-3zm3 8.5H12v-3.5h3c1.6 0 2.5.7 2.5 1.8s-.9 1.7-2.5 1.7z" fill="url(#accent)"/>
  <!-- Terminal cursor blink -->
  <rect x="22" y="22" width="3" height="5" rx="0.5" fill="#f97316" opacity="0.9"/>
</svg>
